<?xml version="1.0" encoding="UTF-8"?>
<svg xmlns="http://www.w3.org/2000/svg" xml:space="preserve" width="100%" height="100%" version="1.1"
     shape-rendering="geometricPrecision" text-rendering="geometricPrecision" image-rendering="optimizeQuality"
     fill-rule="evenodd" clip-rule="evenodd"
     viewBox="0 0 47561.6 47561.6">
 <g>
     <circle fill="#4E6D75" stroke="#FEFEFE" stroke-width="20" stroke-miterlimit="22.9256" cx="23780.8" cy="23780.8"
             r="23770.8"/>
     <path fill="#FEFEFE" stroke="#FEFEFE" stroke-width="7.62" stroke-miterlimit="22.9256"
           d="M11299.04 27915.38c-192.93,-198.77 -338.97,-661.19 -572.84,-1432.18l-44.97 -0.99c-580.95,-1751.09 -1415.17,-2628.4 -2249.89,-3075.45l0.23 0.03c5.68,0.53 11.88,1.03 18.76,1.52 66.32,4.75 192.68,7.9 314.27,15.8 121.62,7.9 238.49,20.53 347.45,30 108.99,9.49 210.06,15.8 296.93,20.52 86.88,4.75 159.52,7.93 246.37,4.77 86.87,-3.15 187.96,-12.64 284.28,-20.55 96.34,-7.88 187.96,-14.21 274.81,-23.68 86.88,-9.47 169.01,-22.11 229.02,-31.58 60.01,-9.47 97.93,-15.81 148.45,-25.28 50.55,-9.46 113.72,-22.11 170.57,-34.76 56.86,-12.62 107.4,-25.25 156.36,-37.9 48.98,-12.62 96.34,-25.27 154.77,-44.23 58.44,-18.93 127.94,-44.21 172.15,-60.01 44.24,-15.78 63.17,-22.09 88.45,-30 25.27,-7.87 56.85,-17.37 86.85,-28.42 30.01,-11.06 58.44,-23.69 85.28,-37.9 15.09,-7.99 29.68,-16.48 46.02,-25.18l0.12 -0.07c1388.64,-12.8 3009.61,-782.43 4474.05,-1914.63 1143.68,863.81 4150.68,2718.97 5202.28,1585.2 -1428.69,-703.23 -2770.57,-1629.73 -3948.78,-2680.12 42.13,-41.39 83.94,-83.05 125.53,-124.9 301.01,190.22 605.75,370.97 916.33,545.51l0.09 0.06c1569.49,881.59 4057.57,2033.39 5561.83,1701.63 400.7,-88.38 731.57,-282.03 956.66,-614.12 -2247.13,-708.09 -4302.4,-1747.16 -6217.46,-3034.76l73.31 -98.46c2727.64,1259.48 8042.4,3316.35 9202.14,816.2 -2908.57,-421.48 -5608.11,-1264.43 -8226.76,-2412.08l15.58 -32.48c3318.97,831.04 9778.25,2027 10548.79,-1041.11 -3272.25,145.28 -6284.3,-124.72 -9343.81,-787.26 4129.73,34.81 11808.58,-399.72 11852.77,-4143.52 -4399.91,1258.66 -8917.12,1879.71 -13411.36,1816.43l-1892.2 -74.05c786.97,1818.9 434.28,3518.46 -441.06,5033.58l-0.03 -0.02 -44.07 75.43 -0.02 0c-271.08,458.48 -584.98,892.45 -922.85,1303.56 -749.94,912.55 -1618.53,1718.35 -2523.6,2475.05l0 -0.02c22.5,-35.14 43.85,-69.43 63.89,-102.43 53.7,-88.44 97.91,-167.39 145.29,-262.17 47.39,-94.75 97.91,-205.31 142.12,-323.77 44.23,-118.43 82.15,-244.79 110.58,-377.46 28.43,-132.66 47.37,-271.64 59.99,-377.47 12.65,-105.82 18.98,-178.45 17.39,-284.29 -1.56,-105.81 -11.05,-244.77 -25.27,-366.39 -14.21,-121.61 -33.15,-225.83 -61.58,-337.98 -28.43,-112.12 -66.34,-232.17 -132.67,-385.37 -66.33,-153.2 -161.1,-339.55 -243.23,-484.87 -82.11,-145.3 -151.61,-249.52 -307.97,-415.37 -156.35,-165.82 -399.56,-393.25 -568.56,-535.39 -168.98,-142.14 -263.76,-199 -358.51,-252.7 -94.75,-53.7 -189.53,-104.22 -326.92,-157.92 -137.4,-53.7 -317.46,-110.56 -439.08,-145.3 -121.59,-34.74 -184.78,-47.39 -270.06,-60.03 -85.29,-12.63 -192.67,-25.25 -320.59,-31.59 -127.93,-6.31 -276.41,-6.31 -385.38,0 -108.96,6.34 -178.47,18.96 -307.98,44.23 -129.5,25.28 -319,63.2 -473.79,104.25 -154.77,41.05 -274.82,85.28 -435.92,167.39 -161.08,82.13 -363.23,202.18 -514.86,307.99 -151.61,105.81 -252.68,197.43 -345.87,293.75 -93.18,96.34 -178.47,197.43 -263.75,323.77 -85.29,126.34 -170.57,277.97 -229.02,402.74 -58.42,124.77 -90,222.68 -112.12,325.34 -22.09,102.67 -34.74,210.05 -41.05,307.96 -6.32,97.93 -6.32,186.37 0,273.23 6.31,86.87 18.96,172.16 34.74,251.13 15.8,78.97 34.74,151.61 72.63,251.11 37.92,99.5 94.78,225.86 156.36,337.98 61.6,112.15 127.95,210.06 191.12,292.19 63.17,82.12 123.18,148.47 206.88,225.85 83.71,77.39 191.11,165.83 298.51,238.47 107.41,72.66 214.78,129.51 311.13,170.57 96.34,41.07 181.62,66.34 263.75,85.28 82.13,18.96 161.08,31.61 281.11,37.92 120.04,6.31 281.12,6.31 396.43,0 115.3,-6.31 184.78,-18.96 249.54,-34.76 64.76,-15.78 124.77,-34.72 189.5,-56.84 64.76,-22.11 134.27,-47.39 205.34,-78.97 71.07,-31.58 143.71,-69.5 225.83,-126.36 82.13,-56.86 173.75,-132.65 243.23,-200.56 69.51,-67.92 116.87,-127.93 164.26,-208.49 47.39,-80.54 94.75,-181.61 118.44,-279.54 23.7,-97.91 23.7,-192.69 17.37,-270.07 -6.32,-77.38 -18.94,-137.4 -37.9,-199 -18.96,-61.58 -44.21,-124.77 -72.64,-180.06 -28.43,-55.27 -60.03,-102.63 -99.52,-146.86 -39.48,-44.21 -86.85,-85.29 -131.08,-115.31 -44.21,-29.99 -85.29,-48.93 -131.09,-61.58 -45.79,-12.62 -96.32,-18.96 -146.86,-18.96 -50.54,0 -101.09,6.34 -157.94,15.81 -56.86,9.47 -120.03,22.11 -164.26,34.74 -44.21,12.62 -69.48,25.27 -88.44,39.49 -18.94,14.21 -31.59,29.99 -41.06,45.79 -9.46,15.81 -15.8,31.59 -18.96,45.8 -3.15,14.22 -3.15,26.86 1.57,39.49 4.75,12.62 14.24,25.27 23.71,34.74 9.47,9.47 18.96,15.8 28.42,22.12 9.47,6.31 18.96,12.64 34.75,15.8 15.8,3.15 37.89,3.15 66.32,-3.18 28.43,-6.31 63.19,-18.94 93.19,-28.43 30.01,-9.47 55.29,-15.78 90.03,-22.09 34.74,-6.31 78.97,-12.65 115.28,-12.65 36.33,0 64.76,6.34 97.91,15.8 33.17,9.47 71.09,22.12 102.67,42.65 31.59,20.52 56.86,48.95 74.23,72.63 17.37,23.71 26.86,42.65 37.9,61.61 11.06,18.96 23.7,37.89 34.74,64.73 11.06,26.86 20.55,61.63 30.02,93.21 9.47,31.59 18.96,60.01 25.27,78.95 6.31,18.96 9.49,28.45 11.06,72.66 1.59,44.23 1.59,123.18 -4.75,176.88 -6.31,53.7 -18.94,82.13 -31.58,110.56 -12.63,28.43 -25.28,56.86 -41.08,90.01 -15.78,33.17 -34.72,71.09 -80.54,126.36 -45.8,55.29 -118.43,127.93 -192.68,187.94 -74.23,60.03 -150.02,107.4 -210.04,140.57 -60.01,33.18 -104.24,52.11 -161.1,72.64 -56.85,20.55 -126.34,42.64 -184.78,60.01 -58.45,17.37 -105.81,30.02 -151.61,39.49 -45.8,9.47 -90.03,15.8 -178.47,18.96 -88.44,3.16 -221.09,3.16 -315.87,-1.59 -94.75,-4.72 -151.61,-14.21 -208.47,-26.86 -56.85,-12.63 -113.71,-28.41 -186.37,-53.68 -72.64,-25.27 -161.1,-60.01 -240.07,-97.93 -78.95,-37.9 -148.46,-78.95 -217.94,-127.93 -69.48,-48.95 -138.98,-105.81 -205.31,-170.57 -66.32,-64.73 -129.51,-137.39 -197.43,-236.89 -67.91,-99.5 -140.55,-225.84 -194.25,-336.4 -53.7,-110.55 -88.44,-205.33 -115.3,-295.36 -26.84,-90.01 -45.78,-175.29 -55.27,-273.22 -9.47,-97.91 -9.47,-208.45 -4.75,-295.32 4.75,-86.85 14.24,-150.05 25.28,-211.65 11.05,-61.58 23.7,-121.59 47.38,-197.41 23.69,-75.79 58.45,-167.41 90.03,-243.23 31.59,-75.79 60.02,-135.8 86.86,-181.6 26.86,-45.8 52.11,-77.41 105.81,-143.73 53.7,-66.33 135.83,-167.42 211.62,-247.96 75.82,-80.54 145.32,-140.57 233.76,-208.48 88.44,-67.92 195.84,-143.71 314.28,-213.22 118.46,-69.48 247.97,-132.65 399.58,-192.66 151.61,-60.01 325.36,-116.87 453.29,-151.63 127.93,-34.74 210.03,-47.37 277.95,-56.86 67.91,-9.47 121.61,-15.78 225.83,-18.94 104.25,-3.15 259.04,-3.15 393.28,3.16 134.24,6.31 247.95,18.96 347.45,34.74 99.5,15.8 184.78,34.74 266.91,56.86 82.13,22.11 161.1,47.38 225.86,69.5 64.76,22.12 115.28,41.05 170.55,64.74 55.29,23.7 115.3,52.13 170.57,80.56 55.29,28.43 105.83,56.86 154.78,85.28 48.98,28.43 96.35,56.86 150.05,91.6 53.7,34.74 113.71,75.82 203.72,151.61 90.03,75.82 210.08,186.37 312.73,292.19 102.66,105.81 187.94,206.9 260.58,301.65 72.66,94.75 132.67,183.22 184.78,270.07 52.14,86.87 96.35,172.16 138.99,266.91 42.64,94.78 83.72,199 123.18,330.08 39.49,131.08 77.4,289.03 99.5,394.84 22.11,105.81 28.45,159.51 31.61,262.17 3.15,102.65 3.15,254.29 0,360.1 -3.16,105.81 -9.5,165.82 -18.96,225.83 -9.47,60.02 -22.12,120.05 -33.18,176.91 -11.03,56.86 -20.52,110.53 -53.7,210.03 -33.15,99.5 -90.01,244.82 -131.08,341.16 -41.06,96.35 -66.33,143.71 -94.76,197.41 -28.42,53.7 -60.01,113.72 -101.08,181.63 -41.06,67.92 -91.6,143.71 -157.95,235.31 -66.32,91.62 -148.43,198.99 -211.62,276.38 -63.17,77.4 -107.38,124.77 -151.61,172.16 -44.23,47.38 -88.44,94.75 -138.99,140.55 -50.54,45.82 -107.4,90.03 -229.01,178.47 -121.59,88.46 -307.97,221.11 -472.22,325.36 -164.24,104.24 -306.38,180.04 -448.52,244.8 -142.14,64.75 -284.28,118.45 -405.9,161.1 -121.61,42.64 -222.68,74.22 -356.94,107.37 -134.24,33.18 -301.65,67.94 -415.37,90.03 -113.71,22.12 -173.72,31.61 -259.01,39.49 -85.28,7.9 -195.84,14.22 -394.84,14.22 -199,0 -486.43,-6.32 -690.18,-15.81 -203.72,-9.47 -323.77,-22.09 -472.22,-33.15 -148.45,-11.06 -325.34,-20.55 -454.85,-25.29 -103.35,-3.76 -176.53,-4.53 -239.58,1.72l-0.03 0c-31.65,-10.79 -63.23,-21.06 -94.7,-30.87 -965.89,-300.73 -1841.8,-160.36 -2211.77,-307.63 -1581.75,-629.81 -383.6,-1656.88 -403.01,-1986.11 -32.43,-549.07 -515.6,-333.97 -358.44,-800.42 129.61,-384.54 548.17,-246.86 776.38,-269.4 -151.36,-77.92 -461.63,-345.17 -507.12,-681.07 -67.69,-500.81 261.95,-373.86 611.79,-752.16 -278.62,-788.49 -919.93,-491.83 -783.1,-1849.54 1163.03,-291.74 1382.45,-302.3 2182.35,-969.45 -131.91,-389.47 -314.77,-172 -362.42,-816.83 132.72,315.93 318.22,383.91 556.9,532.57 278.17,-427.59 101.02,-833.98 292.1,-1385.26 385.34,-1112.18 1218.63,-2125.52 2302.35,-2677.61 18.24,-146.76 58.2,-281.91 125.49,-403.08 271.99,-489.77 988.23,-752.37 2499.89,-642.99 329.75,-21.96 708.9,-22.97 1142.42,-1.24 1675.07,-172.69 4865.46,-796.68 6853.13,116.27 178.99,9.89 362.3,16.54 551.27,18.49l1512.6 238.44c-1139.63,-1774.29 -3398.18,-1107.92 -3477.04,-1941 2948.32,-521.25 5049.77,-627.02 8075.15,140.77 2012.09,510.61 3726.05,1459.16 4171.43,1551.78l72.59 6.65c5.33,-0.56 10.28,-1.41 14.55,-2.73 881.91,-848.3 155.8,-876.24 136.26,-1676.4l2918.15 2107.5c753.32,639.66 620.94,2704.25 1334.92,3573.73 4971.72,3267.93 6482.78,9469.93 8171.27,10770.92 1146.68,2662.05 1513.18,2340.86 -958.57,4017.48 -2007.11,1361.22 -3382.21,931.75 -4024.57,-1066.56 -21.9,-83.54 -109.89,-507.72 -147.27,-587.03 -243.01,-516.23 -174.62,-253.37 -325.27,-385.48 -2387.97,-64.7 -3723.72,45.64 -5660.76,-984.83 -1362.74,-724.88 -2005.98,-1491.88 -2389.21,-2174.63 -279.87,-498.66 -421.07,-952.3 -602.52,-1311.89 0.18,-1.3 0.34,-2.62 0.49,-3.98 1.86,-16.77 2.26,-38.19 3.76,-66.31l0 -0.02c10.82,-18.4 19.19,-41.95 23.98,-71.34l107.98 -543.11c18.27,-37.79 45.69,-100.26 56.95,-159.83 15.02,-38.99 30.19,-77.31 44.72,-113.62 3.27,-8.17 6.49,-16.23 9.72,-24.2l0.06 -0.18c13.14,-26.86 25.45,-54.91 33.78,-82.08 22.41,-52.81 45.51,-103.33 72.91,-155.78 45.15,-86.33 102,-177.95 169.92,-271.14 67.91,-93.16 146.86,-187.94 227.4,-273.22 80.56,-85.29 162.69,-161.08 241.66,-224.27 78.98,-63.17 154.77,-113.69 225.84,-157.93 71.07,-44.21 137.42,-82.12 195.84,-115.3 58.45,-33.15 108.97,-61.58 161.08,-83.69 52.13,-22.12 105.83,-37.9 186.37,-60.02 80.57,-22.11 187.94,-50.54 277.97,-69.5 90.03,-18.94 162.67,-28.43 252.7,-33.17 90.03,-4.73 197.41,-4.73 301.66,-1.57 104.24,3.15 205.31,9.49 306.37,23.7 101.09,14.22 202.18,36.31 322.2,75.8 120.03,39.48 259.01,96.34 356.92,143.71 97.94,47.38 154.79,85.3 211.65,126.36 56.85,41.07 113.71,85.28 181.63,146.88 67.91,61.61 146.86,140.56 210.03,210.04 63.19,69.5 110.56,129.51 153.2,191.09 42.64,61.61 80.56,124.8 118.46,202.18 37.89,77.38 75.81,169 107.4,260.6 31.58,91.6 56.85,183.19 74.22,289.01 17.38,105.81 26.87,225.86 28.43,334.82 1.59,108.97 -4.74,206.9 -14.21,301.66 -9.47,94.75 -22.12,186.37 -55.29,296.93 -33.15,110.55 -86.85,240.05 -148.45,350.6 -61.58,110.56 -131.09,202.16 -210.06,285.85 -78.95,83.72 -167.39,159.52 -247.95,217.96 -80.54,58.45 -153.18,99.5 -221.09,132.67 -67.92,33.18 -131.11,58.43 -203.77,80.54 -72.64,22.12 -154.74,41.06 -238.46,53.68 -83.7,12.65 -168.98,18.98 -251.11,20.55 -82.13,1.59 -161.1,-1.57 -224.29,-9.47 -63.17,-7.9 -110.54,-20.52 -181.61,-45.8 -71.07,-25.27 -165.84,-63.19 -257.44,-120.04 -91.6,-56.86 -180.04,-132.65 -249.54,-206.88 -69.48,-74.23 -120.01,-146.89 -157.93,-208.49 -37.89,-61.58 -63.16,-112.12 -85.28,-175.32 -22.12,-63.16 -41.05,-138.96 -53.7,-202.15 -12.63,-63.17 -18.96,-113.69 -23.71,-154.77 -4.72,-41.05 -7.88,-72.63 -6.31,-102.65 1.59,-30 7.93,-58.43 17.39,-97.91 9.47,-39.49 22.12,-90.03 36.33,-131.11 14.22,-41.05 30,-72.63 47.37,-102.65 17.39,-30 36.33,-58.43 86.87,-102.66 50.55,-44.21 132.65,-104.22 208.47,-142.14 75.82,-37.9 145.3,-53.68 192.69,-58.42 47.38,-4.75 72.63,1.59 97.91,7.9 25.27,6.31 50.54,12.62 75.81,29.99 25.27,17.37 50.55,45.8 66.33,75.8 15.8,30.02 22.11,61.62 33.17,96.36 11.06,34.74 26.84,72.66 44.21,97.91 17.39,25.28 36.33,37.92 53.7,45.8 17.39,7.9 33.17,11.06 48.95,9.47 15.81,-1.57 31.61,-7.88 45.83,-20.53 14.21,-12.62 26.83,-31.56 29.99,-56.83 3.18,-25.27 -3.16,-56.88 -11.06,-90.05 -7.88,-33.15 -17.37,-67.9 -31.58,-104.23 -14.22,-36.3 -33.15,-74.22 -50.55,-105.81 -17.37,-31.58 -33.15,-56.85 -56.85,-83.71 -23.68,-26.84 -55.27,-55.27 -90.01,-75.8 -34.74,-20.53 -72.66,-33.17 -107.4,-39.48 -34.74,-6.32 -66.33,-6.32 -108.97,-4.75 -42.64,1.59 -96.34,4.75 -154.79,18.96 -58.42,14.21 -121.61,39.49 -180.06,67.91 -58.42,28.43 -112.1,60.02 -161.08,94.76 -48.95,34.74 -93.16,72.66 -132.65,120.02 -39.48,47.39 -74.25,104.25 -104.26,167.42 -30,63.17 -55.25,132.67 -71.05,214.78 -15.78,82.12 -22.12,176.9 -18.96,270.06 3.16,93.19 15.8,184.81 53.7,298.52 37.9,113.72 101.09,249.52 175.31,367.98 74.23,118.46 159.52,219.53 244.8,300.07 85.29,80.56 170.57,140.57 235.33,181.62 64.76,41.08 108.97,63.2 159.51,83.72 50.54,20.55 107.4,39.49 175.32,56.86 67.91,17.37 146.86,33.17 211.62,42.64 64.76,9.47 115.28,12.65 165.82,9.49 50.55,-3.15 101.09,-12.65 159.51,-20.55 58.45,-7.88 124.8,-14.21 187.97,-23.68 63.17,-9.47 123.18,-22.12 181.6,-39.49 58.45,-17.37 115.3,-39.48 183.22,-69.5 67.91,-30 146.86,-67.91 219.5,-110.56 72.66,-42.64 139.01,-90 205.33,-143.71 66.33,-53.7 132.68,-113.71 191.1,-172.15 58.44,-58.43 108.99,-115.28 154.79,-180.04 45.8,-64.76 86.87,-137.4 118.46,-200.59 31.58,-63.17 53.67,-116.85 78.95,-186.35 25.27,-69.48 53.7,-154.77 75.81,-236.9 22.12,-82.12 37.9,-161.1 45.8,-241.66 7.9,-80.54 7.9,-162.64 6.31,-252.67 -1.56,-90.03 -4.72,-187.94 -15.78,-289.03 -11.06,-101.09 -29.99,-205.31 -56.85,-307.97 -26.84,-102.65 -61.61,-203.74 -91.62,-281.13 -30,-77.38 -55.27,-131.08 -83.7,-187.94 -28.43,-56.85 -60.01,-116.86 -97.93,-176.88 -37.9,-60.01 -82.11,-120.05 -129.5,-180.06 -47.38,-60.01 -97.91,-120.02 -153.19,-178.47 -55.27,-58.42 -115.28,-115.28 -180.04,-170.57 -64.76,-55.27 -134.24,-108.97 -195.84,-150.04 -61.61,-41.06 -115.28,-69.48 -199,-107.4 -83.7,-37.9 -197.41,-85.27 -301.66,-123.19 -104.22,-37.89 -198.99,-66.32 -293.75,-86.85 -94.75,-20.52 -189.53,-33.17 -287.46,-39.48 -97.91,-6.32 -198.97,-6.32 -287.44,-6.32 -88.44,0 -164.23,0 -246.36,6.32 -82.13,6.31 -170.57,18.96 -284.28,44.21 -113.72,25.27 -252.7,63.19 -386.96,112.14 -134.24,48.96 -263.74,108.99 -371.14,165.85 -107.4,56.86 -192.68,110.53 -279.56,176.86 -86.85,66.35 -175.29,145.32 -254.26,224.29 -78.95,78.97 -148.46,157.92 -214.78,241.62 -66.33,83.72 -129.52,172.16 -181.63,252.7 -52.11,80.56 -93.18,153.2 -129.51,224.27 -9.94,19.47 -19.55,38.83 -28.84,57.97l-0.02 0.07c-44.57,35.7 -71.72,110.87 -107.29,184.81l-53.07 181.94c-14.62,39.84 -28.43,80.9 -41.88,123.11l-0.02 0.07 -6.07 11.1 3.13 -1.79 4.12 -2.37 -0.13 0.22 -0.14 0.23 -0.11 0.22 -0.13 0.22 -0.14 0.23 -0.13 0.22 -0.11 0.23 -0.14 0.2 -0.13 0.22 -0.14 0.23 -0.09 0.17 -0.02 0.07 -0.13 0.23 -0.14 0.22 -0.13 0.22 -0.11 0.23 -0.03 0.02 -0.11 0.2 -0.13 0.22 -0.11 0.23 -0.14 0.22 -0.13 0.23 -0.11 0.22 -0.14 0.22 -0.13 0.25 -0.11 0.22 -0.14 0.23 -0.11 0.22 -0.14 0.23 -0.13 0.22 -0.11 0.25 -0.14 0.22 -0.04 0.07 -0.07 0.15 -0.13 0.23 -0.11 0.24 -0.14 0.23 -0.13 0.22 -0.11 0.22 -0.14 0.25 -0.11 0.22 -0.14 0.23 -0.11 0.24 -0.13 0.23 -0.11 0.22 -0.14 0.25 -0.11 0.22 -0.13 0.25 -0.07 0.11 -0.05 0.11 -0.13 0.23 -0.11 0.24 -0.14 0.23 -0.11 0.24 -0.13 0.23 -0.11 0.24 -0.12 0.23 -0.13 0.24 -0.11 0.23 -0.14 0.24 -0.11 0.23 -0.13 0.24 -0.11 0.23 -0.12 0.24 -0.09 0.16 -0.04 0.07 -0.11 0.24 -0.14 0.23 -0.11 0.24 -0.02 0.09c-36.6,71.79 -53.16,176.86 -73.92,257.56 -14.72,57.48 -40.6,179.88 -30.33,266.82 -104.6,-25.05 -213.68,-53.61 -327.55,-85.84 -273.72,-77.54 -533.13,-153.16 -781.82,-225.93 -6.29,2.8 -12.36,5.78 -19.14,8.31 -12131.75,4555.95 -7903.26,-2778.55 -16243.39,8301.66 -913,443.12 -442.84,-276.34 -1015.81,-2453.07z"/>
     <path fill="#FEFEFE" fill-rule="nonzero"
           d="M20537.96 35841.1c-384.98,327.72 -815.35,580.42 -1289.17,756.12 -473.81,173.73 -967.36,262.57 -1480.66,262.57 -392.87,0 -771.92,-51.33 -1137.15,-153.99 -363.25,-102.65 -704.79,-246.77 -1020.67,-434.32 -315.87,-185.58 -604.11,-410.64 -866.68,-669.26 -262.57,-260.6 -485.66,-550.81 -671.23,-868.66 -185.58,-317.85 -327.72,-659.39 -430.38,-1026.59 -102.66,-365.23 -153.99,-746.25 -153.99,-1139.12 0,-392.87 51.33,-771.92 153.99,-1133.2 102.66,-363.26 244.8,-702.82 430.38,-1020.67 185.57,-317.85 408.66,-608.06 671.23,-868.66 262.57,-260.6 550.81,-481.71 866.68,-667.28 315.88,-185.58 657.42,-329.7 1020.67,-430.38 365.23,-102.66 744.28,-153.99 1137.15,-153.99 513.3,0 1006.85,86.86 1480.66,262.57 473.82,175.7 904.19,428.4 1289.17,756.12l-866.68 1445.13c-250.73,-254.67 -538.97,-454.07 -866.69,-598.19 -329.69,-144.12 -673.2,-217.16 -1036.46,-217.16 -361.28,0 -702.82,69.1 -1020.67,207.29 -317.85,140.17 -596.21,327.72 -835.09,564.63 -238.88,236.9 -428.41,515.27 -566.6,833.12 -140.17,317.85 -209.27,657.41 -209.27,1020.67 0,367.2 69.1,708.74 209.27,1028.56 138.19,321.8 327.72,600.17 566.6,839.05 238.88,238.88 517.24,428.4 835.09,566.6 317.85,140.17 659.39,209.26 1020.67,209.26 209.27,0 410.64,-25.66 608.06,-75.02 195.45,-51.33 383,-120.42 560.68,-209.26l0 -2359.19 1601.09 0 0 3273.25z"/>
     <path id="1" fill="#FEFEFE" fill-rule="nonzero"
           d="M23169.59 36680.14l-1577.4 0 0 -6195.09 381.02 0 521.19 602.13c254.68,-230.98 542.91,-410.63 864.71,-535.01 321.8,-124.37 657.41,-187.55 1008.82,-187.55 377.08,0 734.41,71.07 1070.03,217.16 335.62,144.12 627.8,341.54 878.53,594.24 250.72,252.7 448.14,548.84 594.24,886.43 144.11,337.59 215.19,696.9 215.19,1077.92l0 3539.77 -1577.4 0 0 -3539.77c0,-161.89 -31.59,-315.88 -92.79,-459.99 -63.18,-144.12 -146.09,-270.47 -254.68,-379.05 -108.58,-106.61 -232.95,-191.5 -377.07,-254.68 -142.14,-61.2 -294.16,-92.78 -456.05,-92.78 -165.83,0 -321.79,31.58 -467.88,92.78 -148.07,63.18 -274.42,148.07 -383,254.68 -106.61,108.58 -191.5,234.93 -254.68,379.05 -61.2,144.11 -92.78,298.1 -92.78,459.99l0 3539.77z"/>
     <path id="2" fill="#FEFEFE" fill-rule="nonzero"
           d="M33297.32 33365.43l0 -1660.32c0,-227.03 -43.43,-442.22 -130.3,-643.59 -86.87,-203.35 -205.32,-379.05 -355.36,-529.09 -150.04,-150.04 -325.74,-270.47 -529.09,-355.36 -201.37,-86.87 -416.56,-130.3 -643.59,-130.3 -229.01,0 -444.2,43.43 -645.57,130.3 -203.35,84.89 -379.05,205.32 -529.09,355.36 -150.04,150.04 -268.5,325.74 -355.36,529.09 -86.87,201.37 -130.3,416.56 -130.3,643.59l0 1660.32 3318.66 0zm1660.31 3314.71l-1660.31 0 0 -1660.32 -3318.66 0 0 1660.32 -1654.39 0 0 -4975.03c0,-458.01 86.86,-888.39 260.59,-1291.13 173.73,-402.74 408.67,-756.13 708.75,-1056.21 298.1,-300.08 649.51,-536.99 1052.25,-710.72 402.74,-173.73 833.12,-260.59 1293.12,-260.59 458.01,0 888.39,86.86 1291.13,260.59 402.74,173.73 756.13,410.64 1056.21,710.72 300.08,300.08 536.99,653.47 710.72,1056.21 173.73,402.74 260.59,833.12 260.59,1291.13l0 4975.03z"/>
     <polygon fill="#FEFEFE" fill-rule="nonzero"
              points="17228.57,42145.1 15009.68,42145.1 15009.68,38908.45 17228.57,38908.45 17228.57,39556.4 15656.86,39556.4 15656.86,40203.57 16720.08,40203.57 16720.08,40851.52 15656.86,40851.52 15656.86,41497.15 17228.57,41497.15 "/>
     <path id="1" fill="#FEFEFE" fill-rule="nonzero"
           d="M18943.59 42145.1l-1408.38 0 0 -614.05 1408.38 0c42.37,0 78.58,-14.63 108.63,-44.68 30.05,-30.82 45.45,-66.26 45.45,-108.63 0,-43.92 -15.4,-72.43 -45.45,-85.52 -30.05,-13.87 -66.26,-20.81 -108.63,-20.81l-641.02 0c-106.32,0 -206.48,-20.03 -299.7,-60.86 -93.22,-40.84 -174.89,-95.54 -244.23,-165.65 -69.34,-70.11 -123.27,-151.78 -163.34,-245 -40.06,-93.22 -60.09,-193.38 -60.09,-300.47 0,-106.33 20.03,-206.48 60.09,-299.71 40.07,-93.22 94,-174.89 163.34,-244.23 69.34,-69.34 151.01,-123.27 244.23,-163.33 93.22,-40.07 193.38,-60.1 299.7,-60.1l1248.13 0 0 614.05 -1248.13 0c-41.6,0 -77.81,15.41 -107.86,45.45 -30.05,30.05 -45.46,66.26 -45.46,107.87 0,43.91 15.41,80.89 45.46,111.71 30.05,30.82 66.26,46.23 107.86,46.23l641.02 0c105.55,0 204.93,17.72 298.16,53.16 93.22,35.44 174.89,84.75 244.23,147.92 68.57,63.18 124.04,139.45 164.1,228.06 40.84,88.6 60.87,185.67 60.87,291.23 0,107.09 -20.03,206.47 -60.87,298.93 -40.06,92.45 -95.53,174.12 -164.1,243.46 -69.34,70.11 -151.01,125.58 -244.23,164.88 -93.23,40.06 -192.61,60.09 -298.16,60.09z"/>
     <path id="2" fill="#FEFEFE" fill-rule="nonzero"
           d="M21251.07 42145.1c-148.7,0 -288.92,-28.51 -419.89,-84.75 -130.98,-56.24 -245.78,-134.06 -344.39,-232.67 -98.62,-98.62 -175.67,-213.42 -232.68,-343.62 -56.24,-130.98 -83.98,-271.2 -83.98,-419.9l0 -718.05 -300.47 0 0 -614.05 300.47 0 0 -966.14 614.05 0 0 966.14 933.78 0 0 614.05 -933.78 0 0 718.05c0,64.72 11.55,124.82 35.44,181.83 24.65,56.24 57.78,105.55 99.39,147.15 42.37,42.38 91.68,76.28 149.46,100.93 57.02,24.66 117.88,36.98 182.6,36.98l466.89 0 0 614.05 -466.89 0z"/>
     <path id="3" fill="#FEFEFE" fill-rule="nonzero"
           d="M23839.77 41863.12c-49.31,44.68 -102.47,87.83 -158.72,127.12 -56.24,40.06 -115.56,74.73 -177.2,104.01 -61.63,29.28 -125.58,52.39 -191.07,70.11 -65.49,16.95 -131.75,26.2 -199.55,26.2 -148.69,0 -288.91,-26.97 -419.89,-79.36 -130.97,-52.39 -245.77,-127.89 -344.39,-224.2 -98.62,-97.08 -175.66,-215.72 -231.9,-354.41 -57.02,-139.45 -84.75,-295.85 -84.75,-468.43l0 -1336.72 614.04 0 0 1336.72c0,80.9 12.33,153.32 36.99,217.27 24.65,63.95 58.55,117.88 100.15,161.79 42.38,43.15 91.69,76.28 147.93,99.39 56.24,22.34 117.11,33.9 181.82,33.9 63.18,0 123.28,-14.64 179.52,-43.92 56.24,-30.04 105.55,-68.56 147.92,-116.33 42.38,-48.54 75.51,-103.24 99.39,-164.11 23.89,-60.86 36.21,-123.27 36.21,-187.99l0 -1336.72 615.59 0 0 2417.66 -148.7 0 -203.39 -281.98z"/>
     <path id="4" fill="#FEFEFE" fill-rule="nonzero"
           d="M26997.83 42145.1l-148.7 0 -239.6 -332.06c-58.56,53.16 -120.96,102.47 -186.45,147.92 -65.49,46.23 -134.06,86.29 -206.48,119.42 -72.42,33.9 -146.39,60.87 -221.89,80.13 -76.28,20.03 -153.32,30.05 -231.91,30.05 -169.49,0 -329.75,-32.36 -479.21,-96.31 -150.24,-63.95 -280.45,-152.55 -392.93,-266.57 -111.72,-113.26 -200.32,-248.09 -265.03,-403.72 -64.72,-155.63 -97.08,-325.13 -97.08,-509.26 0,-181.83 32.36,-351.33 97.08,-507.73 64.71,-156.4 153.31,-292 265.03,-406.02 112.48,-114.8 242.69,-204.17 392.93,-268.89 149.46,-64.72 309.72,-97.08 479.21,-97.08 54.71,0 110.18,4.63 168.73,13.87 57.79,8.48 114.03,23.89 168.73,43.92 55.47,20.03 107.09,47 154.86,80.12 48.54,33.13 88.6,73.97 121.73,121.74l0 -1128.71 620.98 0 0 3379.18zm-620.98 -1230.4c0,-83.98 -16.18,-165.65 -48.54,-245.01 -32.36,-78.58 -76.27,-148.69 -131.74,-209.56 -55.48,-60.86 -120.96,-110.17 -195.7,-146.38 -73.96,-36.98 -153.32,-55.47 -238.07,-55.47 -83.97,0 -163.33,14.63 -238.06,44.68 -73.97,30.05 -138.68,73.96 -194.16,130.21 -54.7,56.24 -97.84,124.81 -129.43,206.48 -31.59,80.89 -47.77,173.35 -47.77,275.05 0,89.37 16.18,173.35 47.77,252.7 31.59,80.13 74.73,150.24 129.43,210.34 55.48,60.09 120.19,107.86 194.16,141.76 74.73,34.67 154.09,52.39 238.06,52.39 84.75,0 164.11,-18.49 238.07,-55.47 74.74,-36.99 140.22,-85.52 195.7,-146.39 55.47,-60.86 99.38,-130.98 131.74,-210.33 32.36,-78.59 48.54,-160.25 48.54,-245z"/>
     <path id="5" fill="#FEFEFE" fill-rule="nonzero"
           d="M28194.34 39071.02c0,57.01 -10.79,110.17 -32.36,160.25 -22.34,49.31 -51.62,92.45 -89.37,129.44 -37.76,36.98 -81.67,66.25 -132.52,87.83 -50.08,22.34 -104.01,33.13 -161.02,33.13 -57.02,0 -110.95,-10.79 -161.03,-33.13 -50.85,-21.58 -94.76,-50.85 -130.97,-87.83 -36.98,-36.99 -66.26,-80.13 -88.6,-129.44 -21.58,-50.08 -32.36,-103.24 -32.36,-160.25 0,-56.24 10.78,-108.64 32.36,-159.48 22.34,-50.08 51.62,-94 88.6,-130.98 36.21,-36.98 80.12,-66.26 130.97,-87.83 50.08,-21.57 104.01,-32.36 161.03,-32.36 57.01,0 110.94,10.79 161.02,32.36 50.85,21.57 94.76,50.85 132.52,87.83 37.75,36.98 67.03,80.9 89.37,130.98 21.57,50.84 32.36,103.24 32.36,159.48zm-106.32 3074.08l-620.21 0 0 -2417.66 620.21 0 0 2417.66z"/>
     <path id="6" fill="#FEFEFE" fill-rule="nonzero"
           d="M30893.98 40914.7c0,181.05 -32.36,349.01 -97.08,504.64 -64.71,155.63 -152.54,290.46 -264.26,403.71 -110.94,114.03 -241.92,203.4 -391.39,268.89 -149.46,65.49 -310.49,98.62 -482.3,98.62 -169.49,0 -329.75,-33.13 -479.21,-98.62 -150.24,-65.49 -280.45,-154.86 -392.93,-268.89 -111.72,-113.25 -200.32,-248.08 -265.03,-403.71 -64.72,-155.63 -97.08,-323.59 -97.08,-504.64 0,-183.37 32.36,-353.64 97.08,-510.04 64.71,-156.4 153.31,-291.23 265.03,-405.25 112.48,-113.26 242.69,-202.63 392.93,-267.35 149.46,-64.72 309.72,-97.08 479.21,-97.08 171.81,0 332.84,30.82 482.3,91.69 149.47,60.86 280.45,147.15 391.39,259.64 111.72,111.71 199.55,246.54 264.26,403.71 64.72,157.17 97.08,332.07 97.08,524.68zm-620.98 0c0,-99.39 -16.18,-188.76 -48.54,-269.66 -32.36,-80.13 -76.27,-149.47 -131.74,-207.25 -55.48,-58.55 -120.96,-102.47 -195.7,-133.29 -73.96,-30.81 -153.32,-46.22 -238.07,-46.22 -83.97,0 -163.33,15.41 -238.06,46.22 -73.97,30.82 -138.68,74.74 -194.16,133.29 -54.7,57.78 -97.84,127.12 -129.43,207.25 -31.59,80.9 -47.77,170.27 -47.77,269.66 0,93.22 16.18,180.28 47.77,259.64 31.59,80.12 74.73,149.46 129.43,208.02 55.48,58.55 120.19,104.78 194.16,138.68 74.73,33.9 154.09,50.85 238.06,50.85 84.75,0 164.11,-16.18 238.07,-47.77 74.74,-31.59 140.22,-75.5 195.7,-133.29 55.47,-57.01 99.38,-126.35 131.74,-207.25 32.36,-81.66 48.54,-171.04 48.54,-268.88z"/>
     <path id="7" fill="#FEFEFE" fill-rule="nonzero"
           d="M32562 42145.1l-1408.38 0 0 -614.05 1408.38 0c42.37,0 78.58,-14.63 108.63,-44.68 30.05,-30.82 45.45,-66.26 45.45,-108.63 0,-43.92 -15.4,-72.43 -45.45,-85.52 -30.05,-13.87 -66.26,-20.81 -108.63,-20.81l-641.02 0c-106.32,0 -206.48,-20.03 -299.7,-60.86 -93.22,-40.84 -174.89,-95.54 -244.23,-165.65 -69.34,-70.11 -123.27,-151.78 -163.34,-245 -40.06,-93.22 -60.09,-193.38 -60.09,-300.47 0,-106.33 20.03,-206.48 60.09,-299.71 40.07,-93.22 94,-174.89 163.34,-244.23 69.34,-69.34 151.01,-123.27 244.23,-163.33 93.22,-40.07 193.38,-60.1 299.7,-60.1l1248.13 0 0 614.05 -1248.13 0c-41.6,0 -77.81,15.41 -107.86,45.45 -30.05,30.05 -45.46,66.26 -45.46,107.87 0,43.91 15.41,80.89 45.46,111.71 30.05,30.82 66.26,46.23 107.86,46.23l641.02 0c105.55,0 204.93,17.72 298.16,53.16 93.22,35.44 174.89,84.75 244.23,147.92 68.57,63.18 124.04,139.45 164.1,228.06 40.84,88.6 60.87,185.67 60.87,291.23 0,107.09 -20.03,206.47 -60.87,298.93 -40.06,92.45 -95.53,174.12 -164.1,243.46 -69.34,70.11 -151.01,125.58 -244.23,164.88 -93.23,40.06 -192.61,60.09 -298.16,60.09z"/>
 </g>
</svg>