<?xml version="1.0" encoding="UTF-8"?>
<!DOCTYPE svg PUBLIC "-//W3C//DTD SVG 1.1//EN" "http://www.w3.org/Graphics/SVG/1.1/DTD/svg11.dtd">
<!-- Creator: CorelDRAW 2018 (64 Bit) -->
<svg xmlns="http://www.w3.org/2000/svg" xml:space="preserve" width="100%" height="100%" version="1.1" shape-rendering="geometricPrecision" text-rendering="geometricPrecision" image-rendering="optimizeQuality" fill-rule="evenodd" clip-rule="evenodd"
viewBox="0 0 812.79 812.79"
 xmlns:xlink="http://www.w3.org/1999/xlink">
 <g id="Capa_x0020_1">
  <metadata id="CorelCorpID_0Corel-Layer"/>
  <g id="_2401714974864">
   <path fill="#07552C" d="M193.45 174.96l43.62 -12.18 -0.15 130.27c-21.11,-13.32 -138.23,-14.2 -161.31,-1.33l-0.15 -20.79c-14.8,7.19 -24.73,18.85 -37.83,29.1 -12.59,9.86 -25.05,21.15 -37.63,28.88l0 4.91 0 4.92 0 4.91 0 4.92 0 4.91 0 4.92 0 4.91 0 4.92 0 4.91 0 4.92 0 4.91 0 4.92 0 4.91 0 4.92 0 4.91 0 4.92 0 4.91 0 4.91 0 4.92 0 4.91 0 4.92 0 4.91 0 4.92 0 4.91 0 4.92 0 4.91 0 4.92 0 4.91 0 4.92 0 4.91 0 4.92 0 4.91 0 4.92 0 4.91 0 4.92 0 4.91 0 4.92 0 4.91 0 4.92 0 4.91 0 4.92 0 4.91 0 4.92 0 4.91 0 4.92 0 4.91 0 4.92 0 4.91 0 4.91 0 4.92 0 4.91 0 4.92 0 4.91 0 4.92 0 4.91 0 4.92 0 4.91 0 4.92 0 4.91 0 4.92 0 4.91 0 4.92 0 4.91 0 4.92 0 59.68c1.24,28.07 6.6,49.42 26.32,70.62 34.54,37.14 52.01,39 118.63,39.03l3.21 0 469.9 0 89.42 0c19.78,-1.82 37.64,-6.42 54.46,-16.98 13.8,-8.67 28.4,-23.57 36.92,-39.29 10.58,-19.51 13.45,-29.16 13.93,-52.53l0 -488.1 0 -112.53c-1.43,-13.76 -3.99,-26.06 -8.37,-35.73 -14.58,-32.17 -46.45,-64.31 -89.05,-67.59l-0.61 -0.04 -315.47 0c-16.99,21.82 -161.3,130.12 -194.59,162.22l-11.25 12.74z"/>
   <path fill="#FCFCFC" d="M488.52 351.36l85.37 220.09c20.27,-19.02 102.68,-45.94 137.76,-58.1 12.26,-4.25 4.45,1.06 11.71,-5.36l-84.43 -217.81c0.39,0.42 -0.8,0.6 -1.26,2.27 -2.6,9.54 3.68,1.12 -12.88,10.83l-134.57 47.61c-0.24,0.05 -1.21,0.15 -1.7,0.47z"/>
   <path fill="#FCFCFC" d="M271.75 553.37c13.88,-17.81 53.87,-9.87 75.38,-9.87 30.51,0 59.73,-3.21 86.89,5.57l-0.01 -237.08c-18.47,6.25 -142.06,13.32 -162.06,-3.5l-0.2 244.88z"/>
   <path fill="#FCFCFC" d="M74.99 550.29c22.61,-10.65 50.82,-6.79 81.64,-6.79 32.79,0 57.95,-4.13 80.55,8.45l0.1 -242.72c-15.58,13.24 -147.03,13.11 -160.4,1.46l-1.89 239.6z"/>
   <path fill="#E11E24" d="M-0 256.38l0 72.53c12.58,-7.73 25.04,-19.02 37.63,-28.88 13.1,-10.25 23.03,-21.91 37.83,-29.1 9.34,-12.51 101.2,-87.56 117.99,-95.97l11.25 -12.74c33.29,-32.1 177.6,-140.4 194.59,-162.22l-88.18 0 -311.11 256.38z"/>
   <path fill="#FEEC01" d="M-0 184.34l0 72.04 311.11 -256.38 -87.55 0 -168.29 140.05c-20.9,16.43 -35.42,30.42 -55.27,44.29z"/>
   <path fill="#FCFCFC" d="M271.64 293.34c21.37,-15.05 138.09,-11.54 162.38,-3.03l0.04 -126.79c-87.67,21.35 -76.4,17.91 -162.43,0.17l0.01 129.65z"/>
   <path fill="#FCFCFC" d="M433.31 210.39l50.04 120.35c9.01,-13.72 11.95,-12.88 30.74,-19.84l115.63 -44.21 -43.8 -112.51c-49.84,34.35 -72.84,55.51 -152.61,56.21z"/>
   <path fill="#E11E24" d="M-0 108.95l0 75.39c19.85,-13.87 34.37,-27.86 55.27,-44.29l168.29 -140.05 -91.53 0c-13.93,17.02 -47.04,40.4 -66.49,57.03 -9.96,8.52 -20.34,16.43 -32.65,26.65 -12.06,10.02 -20.55,18.2 -32.89,25.27z"/>
   <path fill="#FCFCFC" d="M271.75 646.27c41.7,14.56 102.95,23.62 146.95,5.36 20.19,-8.39 15.34,3.04 15.24,-81.02 -17.91,6.46 -145.13,13.71 -161.75,-3.38l-0.44 79.04z"/>
   <path fill="#FCFCFC" d="M581.37 588.97l27.03 72.67c87.41,-0.71 98.21,-27.03 151.11,-54.44l-28.08 -78.04c-7.12,18.15 -10.19,14.48 -31.43,22.66 -14.29,5.51 -26.35,10.22 -39.71,15.34 -21.06,8.06 -58.67,27.96 -78.92,21.81z"/>
   <path fill="#FCFCFC" d="M207.43 576.47c-40.58,0 -104.76,5.2 -132.37,-6.83l0.13 77.82c77.27,20.32 85.28,18.27 161.42,-0.4l-0.26 -79.31c-9.83,10.34 -9.22,8.72 -28.92,8.72z"/>
   <path fill="#FCFCFC" d="M193.45 174.96c-16.79,8.41 -108.65,83.46 -117.99,95.97l0.15 20.79c23.08,-12.87 140.2,-11.99 161.31,1.33l0.15 -130.27 -43.62 12.18z"/>
   <path fill="#07552C" d="M-0 108.95c12.34,-7.07 20.83,-15.25 32.89,-25.27 12.31,-10.22 22.69,-18.13 32.65,-26.65 19.45,-16.63 52.56,-40.01 66.49,-57.03 -46.15,0 -68.48,3.5 -93.01,26.32 -21.36,19.87 -39.02,42.61 -39.02,82.63z"/>
   <path fill="#07552C" d="M546.6 398.86c17.91,14.26 9.19,-10.74 30.23,44.54 3.63,9.54 7.66,18.42 10.44,28.05 4.79,16.53 0.63,16.12 5.39,22.6l65.07 -25.06 -5.05 -24.96c-17.73,23.44 15.91,12.78 -38.51,31.1l-16.78 -39.15c26.1,-5.84 19.65,-12.43 36.14,2.38 0.19,-13.15 -3.57,-22.58 -11.24,-30.89 -7.09,14.93 -6.04,16.02 -25.4,21.31l-4.03 -5.13c-4.79,-7.95 -1.05,0.15 -4.61,-8.49 -3.05,-7.39 -4.19,-14.02 -5.85,-22.38 7.11,-1.74 18.84,-6.86 23.98,-7.39 11.35,-1.16 11.53,1.34 20.5,7.89l-3.87 -22.58 -76.41 28.16z"/>
   <path fill="#07552C" d="M196.73 476.35c-38.51,16.03 -77.87,0.17 -75.16,-44.56 1.22,-20.02 14.02,-34.64 31.6,-37.52 29.77,-4.88 30.45,7.26 40.17,22.66l5.48 -25.81c-118.6,-29.45 -122.4,78.32 -65.46,97.86 20.6,7.07 61.37,8.05 63.37,-12.63z"/>
   <path fill="#07552C" d="M393.15 482.59c-7.44,-5.22 5.36,-2.21 -7.47,-2.61 -2.73,-0.09 -9.97,1.4 -13.47,1.79 -10.93,1.22 -20.97,0.93 -30.14,-2.69 -14.89,-5.88 -23.62,-21.05 -23.92,-43.08 -0.57,-42.23 36.82,-47.63 55.99,-39.71 12.52,5.18 9.33,7.69 15.32,19.44 2.05,-3.59 1.2,3.76 3.84,-9.75 1.84,-9.4 1.15,-6.88 0.95,-15.72 -167.89,-33.96 -91.83,157.58 -1.1,92.33z"/>
  </g>
 </g>
</svg>
