<?xml version="1.0" encoding="UTF-8"?>
<!DOCTYPE svg PUBLIC "-//W3C//DTD SVG 1.1//EN" "http://www.w3.org/Graphics/SVG/1.1/DTD/svg11.dtd">
<!-- Creator: CorelDRAW 2018 (64 Bit) -->
<svg xmlns="http://www.w3.org/2000/svg" xml:space="preserve" width="100%" height="100%" version="1.1" shape-rendering="geometricPrecision" text-rendering="geometricPrecision" image-rendering="optimizeQuality" fill-rule="evenodd" clip-rule="evenodd"
viewBox="0 0 812.8 812.8"
 xmlns:xlink="http://www.w3.org/1999/xlink">
 <g id="Capa_x0020_1">
  <metadata id="CorelCorpID_0Corel-Layer"/>
  <g id="_2401711397824">
   <path fill="#B2B3B3" d="M220.67 151.87c46.44,21.33 103.67,-1.75 145.4,-11.43l-0.91 151.26c-24.24,-12.53 -63.76,-7.95 -98.46,-7.95 -40.94,0 -80.04,-7.25 -91.99,12.34l-0.62 -106.54c-17.67,9.39 -108.37,87.26 -131.77,106.69 -12.79,10.62 -29.2,24.56 -42.32,32.61l0 397.79c1.58,69.21 36.29,83.66 83.6,86.16l64.57 0 469.9 0 128.01 0c26.94,-5.03 48.1,-17.87 61.4,-47.66 2.5,-5.61 4.2,-30.65 5.32,-67.15l0 -482.09 0 -146.88c-6.86,-42.06 -28.93,-67.93 -91.56,-69.02l-10.71 0c-100.36,0.61 -200.93,0.04 -301.32,0l-4.94 0 -4.94 0c-15.61,19.91 -140.1,113.18 -171.12,143.41l-3.96 4.14c-0.38,0.39 -1.56,2.8 -1.82,2.15 -0.26,-0.65 -1.26,1.38 -1.76,2.17z"/>
   <path fill="#FDFDFD" d="M174.56 600.83c14.48,-21.73 169.36,-13.91 190.88,-3.8l0.71 -282.08c-27.5,13.12 -66.81,7.69 -99.45,7.69 -27.72,0 -77.2,8.55 -91.13,-12.8l-1.01 290.99z"/>
   <path fill="#FDFDFD" d="M424.47 347.13l89.96 273.8c10.29,-22.5 41.8,-25.67 83.82,-39.6 27.13,-8.98 70.54,-30.26 96.64,-21.68l-88.32 -268.71c-8.76,4.95 5.1,5.77 -40.87,20.72 -38.17,12.41 -118.52,47.33 -141.23,35.47z"/>
   <path fill="#E31E24" d="M-0 256.79l0 72.06c13.12,-8.05 29.53,-21.99 42.32,-32.61 23.4,-19.43 114.1,-97.3 131.77,-106.69 8.6,-10.58 31.3,-30.74 46.58,-37.68 0.5,-0.79 1.5,-2.82 1.76,-2.17 0.26,0.65 1.44,-1.76 1.82,-2.15l3.96 -4.14c31.02,-30.23 155.51,-123.5 171.12,-143.41l-87.71 0c-8.05,11.94 -61.47,52.3 -76.85,65.4l-234.77 191.39z"/>
   <path fill="#FDFDFD" d="M370.98 183.36l45.54 143.06c17.74,-9.05 -17.7,11.72 6.48,-4.93 18.68,-12.87 55.17,-21.89 76.86,-29.04 27.62,-9.12 68.74,-29.33 98.23,-23.58l-45.81 -143.33c-58.12,29.7 -71.23,61 -181.3,57.82z"/>
   <path fill="#FDFDFD" d="M220.67 151.87c-15.28,6.94 -37.98,27.1 -46.58,37.68l0.62 106.54c11.95,-19.59 51.05,-12.34 91.99,-12.34 34.7,0 74.22,-4.58 98.46,7.95l0.91 -151.26c-41.73,9.68 -98.96,32.76 -145.4,11.43z"/>
   <path fill="#FFED00" d="M-0 183.97l0 72.82 234.77 -191.39c15.38,-13.1 68.8,-53.46 76.85,-65.4l-88.43 0c-17.36,18.02 -35.83,30.69 -54.06,46.38l-169.13 137.59z"/>
   <path fill="#FDFDFD" d="M521.93 643.47l27.14 81.02c67.03,10.5 148.45,-27.16 180.33,-59.86l-28.84 -91.19c-3.17,24.8 -38.62,27.76 -84.21,42.88 -16.67,5.53 -30.98,10.2 -47.68,15.82 -30.83,10.37 -41.68,7.51 -46.74,11.33z"/>
   <path fill="#FDFDFD" d="M174.64 709.82c77.43,31.29 115.24,18.72 191.07,1.72l0.46 -91.68c-30.97,15.74 -120.12,8 -158.74,8 -19.06,0 -22.75,-3.2 -32.82,-10.74l0.03 92.7z"/>
   <path fill="#E31E24" d="M-0 109.02l0 74.95 169.13 -137.59c18.23,-15.69 36.7,-28.36 54.06,-46.38l-91.12 0c-14.26,17.49 -46.74,40.21 -66.5,57.07 -10.01,8.54 -20.31,16.44 -32.62,26.67 -12.04,10 -20.67,18.23 -32.95,25.28z"/>
   <path fill="#B2B3B3" d="M-0 109.02c12.28,-7.05 20.91,-15.28 32.95,-25.28 12.31,-10.23 22.61,-18.13 32.62,-26.67 19.76,-16.86 52.24,-39.58 66.5,-57.07l-61.6 0c-14.77,1.52 -27.7,5.71 -41.67,16.1 -27.62,20.57 -28.75,43.7 -28.8,88.52l0 2.18 0 2.22z"/>
   <path fill="#B2B3B3" d="M495.84 423.34c20.54,8.78 11.21,-15.26 31.87,48.06 8.68,26.59 17.21,40.17 11.23,64.93l84.72 -27.34c-2.19,-13.73 -2,-20.41 -9.83,-29l-4.49 22.08 -37.51 12.77c-8.78,-12.35 -17.61,-34 -14.41,-46.88 30.6,-12.27 18.74,-9.53 41.03,3.92 -3.72,-16.22 -5,-25.65 -14.25,-37.52 -6.13,15.83 0.38,17.51 -35.91,24.73l-10.4 -42.37c56.43,-18.19 34.52,-12.36 51.68,1.48l-3.51 -25.97c-18.6,2.98 -33.11,9.4 -48.31,14.3 -12.9,4.17 -31.87,8.2 -41.91,16.81z"/>
   <path fill="#B2B3B3" d="M309.6 516.47c-12.03,-7.5 -93.29,23.87 -89,-58.99 2.42,-46.84 46.7,-50.6 66.55,-42.14 20.63,8.8 7.63,8.29 17.65,24.07 6.51,-9.26 5.43,-16.08 7.39,-28.62 -52.75,-21.14 -119.05,-4.92 -118.64,54.83 0.43,62.25 83.15,83.22 116.05,50.85z"/>
  </g>
 </g>
</svg>
