<?xml version="1.0" encoding="UTF-8"?>
<!DOCTYPE svg PUBLIC "-//W3C//DTD SVG 1.1//EN" "http://www.w3.org/Graphics/SVG/1.1/DTD/svg11.dtd">
<!-- Creator: CorelDRAW 2018 (64 Bit) -->
<svg xmlns="http://www.w3.org/2000/svg" xml:space="preserve" width="100%" height="100%" version="1.1" shape-rendering="geometricPrecision" text-rendering="geometricPrecision" image-rendering="optimizeQuality" fill-rule="evenodd" clip-rule="evenodd"
viewBox="0 0 4334.92 4334.94"
 xmlns:xlink="http://www.w3.org/1999/xlink">
 <g id="Capa_x0020_1">
  <metadata id="CorelCorpID_0Corel-Layer"/>
  <g id="_2255377535744">
   <rect fill="#004A77" x="-0" y="0" width="4334.93" height="4334.93" rx="381" ry="378.03"/>
   <g>
    <polygon fill="#E31E24" points="2661.69,0 3855.91,0 4334.92,388.19 4334.92,1356.01 "/>
    <polygon fill="#FFED00" points="3590.33,0 4334.92,603.42 4334.92,1102.86 2974.05,0 "/>
   </g>
  </g>
  <g id="_2255377536608">
   <path fill="none" d="M2285.18 774.51c-6.38,-8.89 -3.35,6.56 -3.35,16.22 0,6.79 0.57,94.73 -0.3,96.91l3.65 -0.34"/>
   <path fill="none" d="M2487.71 1041.61c3.15,3.21 113.64,6.47 125.37,0"/>
   <path fill="#FEFEFE" d="M1608.86 1304.38l-187.32 0 0 -256.64 187.32 256.64zm-234.91 -256.64l0 256.64 -186.91 0 186.91 -256.64zm1631.2 256.64l-187.37 0 187.37 -256.64 0 256.64zm47.84 0l0 -256.64 186.86 256.64 -186.86 0zm-790.71 907.54l0 -1191.13c263.82,0 421.27,0 702.11,0l-202.9 283.59 -30.37 0 0 60.81 595.94 0 0 -60.81 -30.62 0 -202.9 -283.59 19.28 0 -0.98 5.3c20.5,-4.42 41.99,-4.1 62.29,1.3l-0.44 -2.28 62.77 4.54 0 -111.93c-326.02,0 -649.46,-1.48 -974.43,-1.48l0 -410.68 -111.68 0 0 412.16 -956.02 0 0 100.7 126.33 2.57 1.57 -0.2 11.12 0 -202.86 283.59 -30.39 0 0 56.52 595.94 0 0 -56.52 -30.39 0 -202.88 -283.59 687.58 0 0 1191.13 -118.61 0c-41.55,151.73 -97.19,298.72 -194.97,423.12l-87.35 0 0 109.53 898.04 0 0 -109.53 -78.28 0c-92.97,-125.56 -154.87,-271.3 -190.44,-423.12l-116.46 0z"/>
   <path fill="#FEFEFE" d="M2989.72 830.21c45.48,52.58 129.25,-20.3 78.22,-78.67 -45.5,-52.01 -129.02,19.3 -78.22,78.67z"/>
   <path fill="#FEFEFE" d="M1358.96 832.47c50.39,50.28 129.29,-26.66 78.25,-78.26 -50.94,-51.51 -129.58,28.07 -78.25,78.26z"/>
   <path fill="#FEFEFE" d="M1682.63 1391.34l-569.57 0c17.64,146.29 142.46,252.16 287.02,252.16 145.53,0 265.96,-107.38 282.55,-252.16z"/>
   <path fill="#FEFEFE" d="M2744.24 1391.34c27.09,230.15 298.25,332.97 473.92,180.14 54.77,-47.82 86.99,-107.94 95.69,-180.14l-569.61 0z"/>
   <path fill="#FEFEFE" d="M2838.15 3139.78c2.42,-1.62 -0.98,2.26 0,0zm-264.78 -342.35l-915.87 0 0 -1.71 -471.51 0 -291.16 292.23 723.05 723.05 260.29 -260.27 78.41 -45.27 42.11 0 0 -2.66 868.56 0 862.68 -862.71c64.88,-58.93 56.09,-180.34 -12.12,-254.48 -68.21,-74.15 -175.66,-78 -243.25,-16.4l-537.08 537.33c32.51,94.36 -11.11,195.08 -95.25,224.36 -0.27,1.11 -1.18,2.12 -2.94,2.78 0.09,2.07 -0.29,4.17 -1.14,6.1l-838.32 8.36 -3.01 -2.98 0 6.61 -9.37 -9.37 6.22 -11.69 771.81 -2.27c85.61,0 162.85,-79.72 162.85,-166.86 0,-87.03 -73.2,-165.86 -160.21,-165.86l-194.75 0 0 1.71z"/>
   <path fill="#FEFEFE" d="M1323.46 3551.78l-451.18 -451.18 -316.11 317.22 732.64 712.36 306.54 -306.54 -271.89 -271.86zm-65.39 346.38c-111.33,0 -111.33,-169.13 0,-169.13 111.34,0 111.34,169.13 0,169.13z"/>
  </g>
 </g>
</svg>
