<?xml version="1.0" encoding="UTF-8"?>
<!DOCTYPE svg PUBLIC "-//W3C//DTD SVG 1.1//EN" "http://www.w3.org/Graphics/SVG/1.1/DTD/svg11.dtd">
<!-- Creator: CorelDRAW 2018 (64 Bit) -->
<svg xmlns="http://www.w3.org/2000/svg" xml:space="preserve" width="100%" height="100%" version="1.1" shape-rendering="geometricPrecision" text-rendering="geometricPrecision" image-rendering="optimizeQuality" fill-rule="evenodd" clip-rule="evenodd"
viewBox="0 0 812.8 812.8"
 xmlns:xlink="http://www.w3.org/1999/xlink">
 <g id="Capa_x0020_1">
  <metadata id="CorelCorpID_0Corel-Layer"/>
  <g id="_2401716459056">
   <path fill="#882138" d="M194.51 177.26l44.77 -12.35 0.4 131.25c-11.68,-16.07 -52.61,-10.15 -78.81,-10.15 -31.29,0 -62.81,-4.75 -84.87,7.92l0.63 -20.68c-10.7,5.11 -28.34,20.51 -38.2,28.8 -15.15,12.75 -22.37,21.17 -38.43,30.09l0 4.82 0 4.83 0 4.83 0 4.82 0 4.83 0 4.83 0 4.82 0 4.83 0 4.83 0 4.82 0 4.83 0 4.83 0 4.82 0 4.82 0 4.83 0 4.83 0 4.82 0 4.83 0 4.83 0 4.82 0 4.83 0 4.83 0 4.82 0 4.83 0 4.83 0 4.82 0 4.83 0 4.83 0 4.82 0 4.83 0 4.83 0 4.82 0 4.83 0 4.82 0 4.83 0 4.82 0 4.83 0 4.83 0 4.82 0 4.83 0 4.83 0 4.82 0 4.83 0 4.83 0 4.82 0 4.83 0 4.83 0 4.82 0 4.83 0 4.83 0 4.82 0 4.83 0 4.82 0 4.83 0 4.83 0 4.82 0 4.83 0 4.82 0 4.83 0 4.83 0 4.82 0 4.83 0 4.83 0 4.82 0 56.77c1.14,29.03 6.33,51.06 26.33,72.19 34.66,36.6 47.52,42.72 114.38,42.82l3.22 0 474.14 0 86.02 0c20.57,-1.85 38.98,-6.74 56.2,-18.45 29.9,-20.33 50.84,-48.45 52.51,-95.59l0 -476.71 0 -121.05c-1.45,-10.06 -3.69,-19.23 -7.05,-26.99 -21.33,-49.14 -55.71,-67.74 -97.58,-74.01l-145.14 0 -2.49 0 -2.5 0 -2.49 0 -2.5 0 -2.49 0 -2.5 0 -2.49 0 -2.5 0 -2.49 0 -2.49 0 -2.5 0 -2.49 0 -2.5 0 -2.49 0 -2.5 0 -2.49 0 -2.5 0 -2.49 0 -2.5 0 -2.49 0 -2.5 0 -2.49 0 -2.5 0 -2.49 0 -2.5 0 -2.49 0 -2.5 0 -2.49 0 -2.5 0 -2.49 0 -2.5 0 -2.49 0 -2.49 0 -2.5 0 -2.49 0 -2.5 0 -2.49 0 -2.5 0 -2.49 0 -2.5 0 -2.49 0 -2.5 0 -2.49 0 -2.5 0 -2.49 0 -2.5 0 -2.49 0 -2.5 0 -2.49 0 -2.5 0 -2.49 0 -2.5 0 -2.49 0 -2.5 0 -2.49 0 -2.49 0 -2.5 0 -2.49 0 -2.5 0 -2.49 0 -2.5 0 -2.49 0 -2.5 0 -2.5 0 -196.19 163.04c-7.71,7.27 -7.29,6.88 -12.66,14.22z"/>
   <path fill="#FDFCFD" d="M75.77 554.83c23.64,-12.05 97.79,-7.04 133.78,-7.04 20.01,0 20.72,1.6 30.22,9.13l0 -242.65c-24.42,13.32 -95.99,7.48 -137.11,7.48 -15.91,0 -18.11,-3.15 -26.67,-8.24l-0.22 241.32z"/>
   <path fill="#FDFCFD" d="M274.33 554.42c23.86,-11.15 145.46,-12.84 164.03,1.96l0 -241.76c-22.23,12.24 -52.74,7.13 -78.53,7.13 -33.36,-0.01 -62.82,4.64 -84.96,-7.88l-0.54 240.55z"/>
   <path fill="#FDFCFD" d="M493.01 352.88l85.68 221.87c2.17,-1 3.46,-2.98 3.84,-2.21l30.42 -15.84c31.23,-12.09 99.71,-43.77 119.22,-36.77l-86.46 -225.82c-16.29,18.89 -133.39,63.72 -152.7,58.77z"/>
   <path fill="#E21E24" d="M-0 258.74l0 73.4c16.06,-8.92 23.28,-17.34 38.43,-30.09 9.86,-8.29 27.5,-23.69 38.2,-28.8 18.63,-20.3 39.3,-33.57 59.18,-50.87 14.29,-12.45 41.29,-38.12 58.7,-45.12 5.37,-7.34 4.95,-6.95 12.66,-14.22l196.19 -163.04 -89.28 0 -77.87 66.17c-33.53,26.4 -213.76,179.3 -236.21,192.57z"/>
   <path fill="#FFED00" d="M-0 186.26l0 72.48c22.45,-13.27 202.68,-166.17 236.21,-192.57l77.87 -66.17 -88.03 0c-15.24,20.35 -221.99,183.63 -226.05,186.26z"/>
   <path fill="#FDFCFD" d="M432.86 290.9c3.89,-2.44 7.27,1.17 7.94,-26.7l-0.13 -67.61c0.09,-19.52 4.15,-19.96 -7.73,-27.28 -55.7,-0.56 -46.85,29.31 -157.29,-4.73l-1.3 129.17c25.79,-12.02 140.6,-11.81 158.51,-2.85z"/>
   <path fill="#FDFCFD" d="M432.94 169.31c11.88,7.32 7.82,7.76 7.73,27.28l0.13 67.61c-0.67,27.87 -4.05,24.26 -7.94,26.7l5.62 -66.58c12.97,13.19 41.31,93.68 44.76,107.94 31.54,-21.06 91.95,-42.96 130.26,-55.53l22.06 -8.59 -38.67 -100.44c-0.46,-0.89 -0.99,-1.97 -1.5,-2.82l-8.4 -10.1c-34.74,36.71 -78.96,57.19 -148.63,57.72l-5.42 -43.19z"/>
   <path fill="#E21E24" d="M-0 109.95l0 76.31c4.06,-2.63 210.81,-165.91 226.05,-186.26l-92.68 0c-6.19,9.15 -53.07,46.15 -64.74,55.36 -20.98,16.55 -47.25,43.05 -68.63,54.59z"/>
   <path fill="#FDFCFD" d="M410.64 583c-40.71,0 -108.66,5.16 -136.27,-6.67l0.09 77.36c51.77,14.35 113.09,23.97 163.54,-2.34l0.39 -76.63c-7.61,5.04 -13.45,8.28 -27.75,8.28z"/>
   <path fill="#FDFCFD" d="M75.63 653.54c55.52,15.34 108.66,24.25 163.76,-1.84l0.38 -77.16c-20.36,13.17 -147.2,13.87 -161.97,0.57l-2.17 78.43z"/>
   <path fill="#FDFCFD" d="M589 604.78c12.71,19.8 15.3,48 29.07,63.41 85.79,0.27 109.55,-35.82 148.85,-55.78l-27.14 -75.99c-14.06,20.14 -46.75,27.14 -71.45,36.72 -10.58,4.11 -72.67,24.53 -79.33,31.64z"/>
   <path fill="#FDFCFD" d="M194.51 177.26c-17.41,7 -44.41,32.67 -58.7,45.12 -19.88,17.3 -40.55,30.57 -59.18,50.87l-0.63 20.68c22.06,-12.67 53.58,-7.92 84.87,-7.92 26.2,0 67.13,-5.92 78.81,10.15l-0.4 -131.25 -44.77 12.35z"/>
   <path fill="#882138" d="M-0 109.95c21.38,-11.54 47.65,-38.04 68.63,-54.59 11.67,-9.21 58.55,-46.21 64.74,-55.36 -46.61,0 -67.77,4.58 -92.22,28.15 -21.44,20.66 -41.15,41.61 -41.15,81.8z"/>
   <path fill="#882138" d="M319.18 435.73c-0.08,45.38 3.51,36.65 -8.91,58.23l80.71 -0.5c1.13,-15.98 3.57,-17.84 -1.52,-27.57 -11.66,7.22 -2.8,3.18 -12.7,16.01l-33.1 0.4 -0.58 -37.61c34.13,-4.33 20.17,5.22 37.19,11.57l-0.2 -36.02c-19.88,6.48 1.2,3.67 -14.06,9.8 -10.99,4.4 -10.74,2.6 -23.04,1.39l0.69 -33.03c36.86,-4.89 33.55,1.7 41.57,12.16l7.03 -24.05 -86.33 -0.54c3.32,9.69 6.3,1.99 11.42,17.05 3.37,9.93 1.85,22.16 1.83,32.71z"/>
   <path fill="#882138" d="M129.34 492.07l77.37 1.33c0.49,-4.53 1.96,-11.5 2.19,-14.87l-1.47 -14.52c-13.55,8.84 -2.59,2.74 -12.88,16.87l-31.55 0.58 -0.71 -79.25c14.87,-14.42 11.2,1.79 13.64,-14.91l-51.35 -0.34c3.63,24.95 14.07,-14.89 13.92,48.72 -0.12,55.38 -0.52,33.51 -9.16,56.39z"/>
   <path fill="#882138" d="M632.2 451.65l-1.6 -6.12c-59.71,53.02 -103.22,-50.02 -44.84,-59.27 22.24,-3.52 12.7,4.36 27.6,11.32l-3.97 -24.03c-40.61,0.55 -82.23,26.58 -69.07,68 13.12,41.33 70.02,42 91.88,10.1z"/>
   <path fill="#BC4F6A" d="M630.6 445.53l1.6 6.12c7.97,-3.51 5.89,6.11 6.58,-7.92 11.9,13.04 14.26,7.2 33.84,-0.09 14.48,-5.4 13.15,-3.87 22.15,-12.1l-8.85 -12.81c-25.3,4.54 -11.17,8.64 -37.03,5.6 -5.42,13.78 -2.39,4.96 -11.66,13.73 -5.52,5.24 -1.94,1.01 -6.63,7.47z"/>
  </g>
 </g>
</svg>
