<?xml version="1.0" encoding="UTF-8"?>
<!DOCTYPE svg PUBLIC "-//W3C//DTD SVG 1.1//EN" "http://www.w3.org/Graphics/SVG/1.1/DTD/svg11.dtd">
<!-- Creator: CorelDRAW 2018 (64 Bit) -->
<svg xmlns="http://www.w3.org/2000/svg" xml:space="preserve" width="100%" height="100%" version="1.1" shape-rendering="geometricPrecision" text-rendering="geometricPrecision" image-rendering="optimizeQuality" fill-rule="evenodd" clip-rule="evenodd"
viewBox="0 0 812.8 813.18"
 xmlns:xlink="http://www.w3.org/1999/xlink">
 <g id="Capa_x0020_1">
  <metadata id="CorelCorpID_0Corel-Layer"/>
  <g id="_2401711621984">
   <rect fill="#56698F" x="0.07" y="0.03" width="812.73" height="813.15" rx="111.87" ry="111.87"/>
   <path fill="#FEFEFE" d="M274.41 163.54c55.7,23.48 110.31,22.81 163.92,0l0 489.31c-57.78,21.34 -112.44,21.33 -163.92,0l0 -489.31z"/>
   <rect fill="#56698F" stroke="#56698F" stroke-width="7.62" stroke-miterlimit="22.9256" x="274.41" y="287.59" width="163.92" height="33.4" rx="16.7" ry="16.7"/>
   <rect fill="#56698F" stroke="#56698F" stroke-width="7.62" stroke-miterlimit="22.9256" x="274.28" y="549.04" width="163.92" height="33.4" rx="16.7" ry="16.7"/>
   <path fill="#FEFEFE" d="M438.08 212.57c60.42,1.73 111.09,-18.65 152.81,-59.31l177.02 456.16c-46.14,40.8 -97.1,60.57 -152.81,59.3l-177.02 -456.15z"/>
   <rect fill="#56698F" stroke="#56698F" stroke-width="7.62" stroke-miterlimit="22.9256" transform="matrix(0.010413 -0.00404094 0.00404097 0.0104129 482.955 328.212)" width="14675.55" height="2990.06" rx="1495.03" ry="1495.03"/>
   <rect fill="#56698F" stroke="#56698F" stroke-width="7.62" stroke-miterlimit="22.9256" transform="matrix(0.010413 -0.00404094 0.00404097 0.0104129 577.429 571.998)" width="14675.55" height="2990.06" rx="1495.03" ry="1495.03"/>
   <path fill="#FEFEFE" d="M75.81 163.54c55.71,23.48 110.32,22.81 163.92,0l0 489.31c-57.78,21.34 -112.44,21.33 -163.92,0l0 -489.31z"/>
   <rect fill="#56698F" stroke="#56698F" stroke-width="7.62" stroke-miterlimit="22.9256" x="75.81" y="287.59" width="163.92" height="33.4" rx="16.7" ry="16.7"/>
   <rect fill="#56698F" stroke="#56698F" stroke-width="7.62" stroke-miterlimit="22.9256" x="75.69" y="549.04" width="163.92" height="33.4" rx="16.7" ry="16.7"/>
   <path fill="#56698F" fill-rule="nonzero" stroke="#56698F" stroke-width="7.62" stroke-miterlimit="22.9256" d="M561.5 505.82l-2.26 -5.82c5.46,-2.62 8.49,-4.29 9.08,-5.08 0.44,-0.51 0.69,-1.16 0.67,-1.99 0.03,-1.38 -1.53,-6.41 -4.67,-15.14 -3.14,-8.74 -6.29,-17.14 -9.45,-25.29 -5.88,-15.14 -10.22,-25.9 -13.07,-32.3 -2.83,-6.37 -4.73,-9.82 -5.73,-10.32 -0.97,-0.49 -3.2,-0.18 -6.71,0.9l-4.26 1.24 -2.26 -5.82 8.12 -2.87c5.01,-1.81 8.99,-3.27 11.93,-4.41 4.02,-1.56 10.48,-4.18 19.36,-7.82 4.77,-1.99 8.29,-3.41 10.57,-4.3 8.48,-3.29 15.05,-4.92 19.72,-4.89 4.67,0.03 8.69,1.28 12.06,3.71 3.37,2.43 6,6.1 7.88,10.95 3.4,8.77 3.15,17.32 -0.78,25.68 -3.93,8.33 -10.68,14.35 -20.28,18.08 -1.24,0.48 -2.56,0.88 -4.02,1.22 -1.45,0.37 -3,0.67 -4.7,0.96 -1.46,-1.38 -2.94,-2.68 -4.46,-3.93l0.95 -2.38c1.13,-0.18 2.16,-0.39 3.09,-0.58 0.92,-0.22 1.75,-0.46 2.45,-0.73 4.78,-1.85 8.04,-5.02 9.78,-9.51 1.74,-4.5 1.44,-9.74 -0.87,-15.7 -2.58,-6.64 -6.09,-11 -10.48,-13.06 -4.4,-2.05 -9.63,-1.89 -15.72,0.47 -2.45,0.95 -5.22,2.42 -8.28,4.39 5.2,14.82 9.77,27.33 13.72,37.51 1.33,3.42 5.75,14.25 13.27,32.53 2.96,7.21 4.82,11.29 5.6,12.27 0.52,0.72 1.2,1.1 1.99,1.18 1.25,0.13 5.45,-0.97 12.62,-3.25l2.26 5.81c-8.47,2.96 -15.58,5.55 -21.3,7.77 -2.57,1 -11.17,4.5 -25.82,10.52z"/>
   <g>
    <polygon fill="#E31E24" points="-0,260.59 -0,333.98 405.83,0 316.65,0 "/>
    <polygon fill="#FFED00" points="-0,187.21 -0,260.59 316.65,0 227.48,0 "/>
    <polygon fill="#E31E24" points="-0,111.96 -0,117.56 -0,187.21 227.48,0 136.04,0 "/>
   </g>
   <path fill="#56698F" fill-rule="nonzero" d="M351.09 489.91c-16.95,0 -29.92,-4.34 -38.91,-13.04 -9,-8.69 -13.49,-20.65 -13.49,-35.9 0,-10.64 2.18,-19.69 6.53,-27.14 4.37,-7.47 10.41,-13.18 18.14,-17.18 7.75,-3.99 17.69,-5.99 29.86,-5.99 11.71,0 21.27,1.93 28.72,5.76 7.42,3.83 13.16,9.14 17.17,15.95 4.02,6.82 6.02,15.18 6.02,25.1 0,10.74 -2.21,20.02 -6.6,27.84 -4.42,7.83 -10.62,13.89 -18.64,18.16 -8.01,4.3 -17.62,6.44 -28.8,6.44zm2.63 -7.47c9.26,0 16.63,-3.41 22.13,-10.22 5.52,-6.81 8.27,-17.18 8.27,-31.06 0,-14.59 -3.15,-25.8 -9.47,-33.6 -5.12,-6.28 -12.99,-9.43 -23.63,-9.43 -9.97,0 -17.67,3.29 -23.13,9.85 -5.47,6.56 -8.2,16.66 -8.2,30.29 0,9.8 1.51,18.11 4.49,24.93 3.01,6.81 6.82,11.72 11.44,14.73 4.63,3.01 10.67,4.51 18.1,4.51z"/>
   <path id="1" fill="none" fill-rule="nonzero" stroke="#56698F" stroke-width="7.62" stroke-miterlimit="22.9256" d="M351.09 489.91c-16.95,0 -29.92,-4.34 -38.91,-13.04 -9,-8.69 -13.49,-20.65 -13.49,-35.9 0,-10.64 2.18,-19.69 6.53,-27.14 4.37,-7.47 10.41,-13.18 18.14,-17.18 7.75,-3.99 17.69,-5.99 29.86,-5.99 11.71,0 21.27,1.93 28.72,5.76 7.42,3.83 13.16,9.14 17.17,15.95 4.02,6.82 6.02,15.18 6.02,25.1 0,10.74 -2.21,20.02 -6.6,27.84 -4.42,7.83 -10.62,13.89 -18.64,18.16 -8.01,4.3 -17.62,6.44 -28.8,6.44zm2.63 -7.47c9.26,0 16.63,-3.41 22.13,-10.22 5.52,-6.81 8.27,-17.18 8.27,-31.06 0,-14.59 -3.15,-25.8 -9.47,-33.6 -5.12,-6.28 -12.99,-9.43 -23.63,-9.43 -9.97,0 -17.67,3.29 -23.13,9.85 -5.47,6.56 -8.2,16.66 -8.2,30.29 0,9.8 1.51,18.11 4.49,24.93 3.01,6.81 6.82,11.72 11.44,14.73 4.63,3.01 10.67,4.51 18.1,4.51z"/>
   <path fill="#56698F" fill-rule="nonzero" stroke="#56698F" stroke-width="7.62" stroke-miterlimit="22.9256" d="M615.89 380.2l-2.04 -5.26c8.62,-3.04 15.55,-5.58 20.74,-7.6 7.56,-2.93 15.16,-6.03 22.77,-9.29l2.04 5.26c-1.36,0.53 -3.74,1.68 -7.14,3.43 -1.38,0.74 -2.23,1.39 -2.58,1.98 -0.34,0.56 -0.46,1.24 -0.37,1.99 0.11,1.44 1.74,6.23 4.86,14.4l9.99 26.14 7.44 19.75c4.04,10.66 6.34,17.1 6.91,19.3 1.37,5.54 1.4,11.13 0.12,16.74 -1.27,5.64 -3.93,11.24 -7.98,16.86 -3.08,4.2 -6.54,7.05 -10.37,8.54 -1.27,0.49 -2.94,0.81 -4.99,0.98 -0.89,-3.06 -1.53,-5.1 -1.92,-6.11 -0.42,-1.08 -1.3,-2.95 -2.64,-5.63l1.26 -1.3c3.85,1.93 7.48,2.24 10.9,0.92 1.7,-0.67 2.81,-1.65 3.33,-2.96 0.53,-1.32 0.04,-4.25 -1.42,-8.8 -2.26,-7.07 -5.4,-15.81 -9.42,-26.17l-19.4 -49.59c-3.29,-8.48 -5.45,-13.47 -6.45,-14.94 -0.67,-0.93 -1.45,-1.46 -2.36,-1.58 -0.89,-0.11 -4.65,0.87 -11.28,2.94z"/>
   <path fill="#56698F" fill-rule="nonzero" d="M130.89 492.27l0 -3.8c2.7,-1.29 5.28,-2.81 7.69,-4.53 0.63,-13.43 0.96,-27.41 0.96,-41.96 0,-11.43 -0.13,-22.23 -0.38,-32.37 -0.15,-7.24 -0.48,-11.39 -1.04,-12.47 -0.25,-0.66 -0.76,-1.14 -1.54,-1.47 -0.76,-0.3 -4.38,-0.73 -10.85,-1.29l0 -6.07c9.53,0.3 18.39,0.45 26.56,0.45 7.89,0 15.4,-0.15 22.46,-0.45l0 6.07c-6.76,0.46 -10.65,1.04 -11.69,1.77 -0.63,0.46 -1.09,1.37 -1.36,2.73 -0.28,1.37 -0.49,9.39 -0.64,24.06l-0.43 36.19c0,6.8 0.15,14.65 0.46,23.57 6.45,0.31 11.23,0.46 14.31,0.46 9.31,0 17.13,-0.76 23.48,-2.28 1.34,-4.45 2.65,-9.76 3.94,-15.93l6.53 0c-1.14,7.21 -2.15,16.16 -3.04,26.86 -4.68,0.3 -9,0.46 -12.95,0.46l-26.76 -0.31 -11.99 -0.15c-5.51,-0.05 -13.43,0.1 -23.72,0.46z"/>
   <path id="1" fill="none" fill-rule="nonzero" stroke="#56698F" stroke-width="7.62" stroke-miterlimit="22.9256" d="M130.89 492.27l0 -3.8c2.7,-1.29 5.28,-2.81 7.69,-4.53 0.63,-13.43 0.96,-27.41 0.96,-41.96 0,-11.43 -0.13,-22.23 -0.38,-32.37 -0.15,-7.24 -0.48,-11.39 -1.04,-12.47 -0.25,-0.66 -0.76,-1.14 -1.54,-1.47 -0.76,-0.3 -4.38,-0.73 -10.85,-1.29l0 -6.07c9.53,0.3 18.39,0.45 26.56,0.45 7.89,0 15.4,-0.15 22.46,-0.45l0 6.07c-6.76,0.46 -10.65,1.04 -11.69,1.77 -0.63,0.46 -1.09,1.37 -1.36,2.73 -0.28,1.37 -0.49,9.39 -0.64,24.06l-0.43 36.19c0,6.8 0.15,14.65 0.46,23.57 6.45,0.31 11.23,0.46 14.31,0.46 9.31,0 17.13,-0.76 23.48,-2.28 1.34,-4.45 2.65,-9.76 3.94,-15.93l6.53 0c-1.14,7.21 -2.15,16.16 -3.04,26.86 -4.68,0.3 -9,0.46 -12.95,0.46l-26.76 -0.31 -11.99 -0.15c-5.51,-0.05 -13.43,0.1 -23.72,0.46z"/>
  </g>
 </g>
</svg>
