<?xml version="1.0" encoding="UTF-8"?>
<!DOCTYPE svg PUBLIC "-//W3C//DTD SVG 1.1//EN" "http://www.w3.org/Graphics/SVG/1.1/DTD/svg11.dtd">
<!-- Creator: CorelDRAW 2018 (64 Bit) -->
<svg xmlns="http://www.w3.org/2000/svg" xml:space="preserve" width="100%" height="100%" version="1.1" shape-rendering="geometricPrecision" text-rendering="geometricPrecision" image-rendering="optimizeQuality" fill-rule="evenodd" clip-rule="evenodd"
viewBox="0 0 812.8 812.8"
 xmlns:xlink="http://www.w3.org/1999/xlink">
 <g id="Capa_x0020_1">
  <metadata id="CorelCorpID_0Corel-Layer"/>
  <g id="_2401480876880">
   <rect fill="#1053CE" x="0.07" y="1.29" width="812.57" height="811.51" rx="97.28" ry="97.1"/>
   <g>
    <path fill="#FEFEFE" d="M274.36 164.47c55.69,23.43 110.29,22.76 163.88,0l0 488.32c-57.77,21.3 -112.42,21.29 -163.88,0l0 -488.32z"/>
    <rect fill="#1053CE" stroke="#1053CE" stroke-width="7.62" stroke-miterlimit="22.9256" x="274.36" y="288.27" width="163.89" height="33.33" rx="16.7" ry="16.67"/>
    <rect fill="#1053CE" stroke="#1053CE" stroke-width="7.62" stroke-miterlimit="22.9256" x="274.23" y="549.2" width="163.89" height="33.33" rx="16.7" ry="16.67"/>
    <path fill="#FEFEFE" d="M437.99 213.39c60.42,1.74 111.07,-18.6 152.79,-59.18l176.99 455.24c-46.14,40.72 -97.09,60.45 -152.79,59.18l-176.99 -455.24z"/>
    <rect fill="#1053CE" stroke="#1053CE" stroke-width="7.62" stroke-miterlimit="22.9256" transform="matrix(0.0104109 -0.00403282 0.00404018 0.010392 482.861 328.807)" width="14675.55" height="2990.06" rx="1495.03" ry="1495.03"/>
    <rect fill="#1053CE" stroke="#1053CE" stroke-width="7.62" stroke-miterlimit="22.9256" transform="matrix(0.0104109 -0.00403282 0.00404018 0.010392 577.317 572.104)" width="14675.55" height="2990.06" rx="1495.03" ry="1495.03"/>
    <path fill="#FEFEFE" d="M75.8 164.47c55.69,23.43 110.29,22.76 163.89,0l0 488.32c-57.77,21.3 -112.42,21.29 -163.89,0l0 -488.32z"/>
    <rect fill="#1053CE" stroke="#1053CE" stroke-width="7.62" stroke-miterlimit="22.9256" x="75.8" y="288.27" width="163.89" height="33.33" rx="16.7" ry="16.67"/>
    <rect fill="#1053CE" stroke="#1053CE" stroke-width="7.62" stroke-miterlimit="22.9256" x="75.68" y="549.2" width="163.89" height="33.33" rx="16.7" ry="16.67"/>
    <path fill="#1053CE" fill-rule="nonzero" stroke="#1053CE" stroke-width="7.62" stroke-miterlimit="22.9256" d="M191.7 480.81l1.9 1.74c-1.3,2.54 -2.45,5.11 -3.44,7.76 -5.9,3.06 -11.59,5.21 -17.05,6.49 -5.46,1.27 -11.75,1.92 -18.87,1.92 -13.34,0 -24.59,-2.34 -33.79,-6.98 -9.23,-4.67 -16.3,-11.24 -21.27,-19.7 -4.96,-8.46 -7.43,-18.16 -7.43,-29.11 0,-15.75 5.59,-28.67 16.79,-38.74 11.2,-10.04 26.67,-15.08 46.38,-15.08 6.55,0 13.02,0.57 19.44,1.74 6.45,1.17 12.81,2.96 19.16,5.32l0.54 1.14c-0.91,2.75 -1.56,5.37 -1.89,7.92 -0.68,4.41 -1.17,9.88 -1.54,16.42l-6.55 0c-0.31,-8.02 -0.6,-12.4 -0.91,-13.21 -0.31,-0.77 -1.71,-2.12 -4.18,-4.02 -2.5,-1.92 -5.85,-3.45 -10.12,-4.64 -4.23,-1.2 -8.91,-1.79 -14.03,-1.79 -12.19,0 -21.89,3.76 -29.07,11.26 -7.2,7.5 -10.78,17.95 -10.78,31.34 0,14.51 4.34,26.24 12.99,35.21 7.98,8.33 18.95,12.48 32.91,12.48 5.41,0 10.45,-0.54 15.18,-1.66 4.71,-1.11 9.91,-3.03 15.63,-5.81z"/>
    <path fill="#1053CE" fill-rule="nonzero" stroke="#1053CE" stroke-width="7.62" stroke-miterlimit="22.9256" d="M314.89 497.24l0 -6.23c6.03,-0.47 9.46,-0.94 10.29,-1.45 0.6,-0.32 1.07,-0.83 1.36,-1.61 0.52,-1.27 0.88,-6.52 1.11,-15.78 0.24,-9.26 0.34,-18.21 0.34,-26.93 0,-16.22 -0.15,-27.79 -0.49,-34.77 -0.34,-6.96 -0.86,-10.85 -1.61,-11.68 -0.73,-0.8 -2.92,-1.32 -6.58,-1.58l-4.42 -0.39 0 -6.23 8.6 0.26c5.33,0.13 9.57,0.21 12.72,0.21 4.31,0 11.28,-0.1 20.87,-0.29 5.17,-0.13 8.97,-0.18 11.41,-0.18 9.1,0 15.81,0.86 20.15,2.57 4.34,1.71 7.64,4.33 9.9,7.81 2.26,3.48 3.38,7.84 3.38,13.03 0,9.39 -3.33,17.25 -10.01,23.61 -6.68,6.33 -15.15,9.5 -25.45,9.5 -1.32,0 -2.7,-0.11 -4.18,-0.32 -1.48,-0.18 -3.04,-0.46 -4.73,-0.8 -0.86,-1.82 -1.77,-3.55 -2.73,-5.27l1.74 -1.87c1.12,0.24 2.16,0.42 3.09,0.58 0.94,0.12 1.8,0.2 2.55,0.2 5.12,0 9.31,-1.76 12.56,-5.32 3.25,-3.55 4.86,-8.53 4.86,-14.92 0,-7.11 -1.69,-12.43 -5.05,-15.93 -3.35,-3.5 -8.29,-5.24 -14.81,-5.24 -2.63,0 -5.75,0.36 -9.31,1.09 -0.52,15.67 -0.78,28.96 -0.78,39.86 0,3.65 0.21,15.33 0.6,35.05 0.15,7.78 0.41,12.25 0.78,13.44 0.23,0.86 0.73,1.45 1.43,1.82 1.12,0.57 5.43,1.06 12.94,1.53l0 6.23c-8.96,-0.32 -16.53,-0.47 -22.66,-0.47 -2.76,0 -12.04,0.15 -27.87,0.47z"/>
    <path fill="#1053CE" fill-rule="nonzero" stroke="#1053CE" stroke-width="7.62" stroke-miterlimit="22.9256" d="M592.6 492.98l-1.41 -3.62c2.05,-2.11 3.84,-4.33 5.33,-6.66 -1.93,-7.77 -7.52,-23.5 -16.74,-47.21 -6.28,-16.16 -10.62,-26.81 -13.01,-31.95 -1.21,-2.76 -2.38,-4.34 -3.51,-4.73 -1.11,-0.41 -4.86,0.32 -11.27,2.19l-2.26 -5.8c11.28,-4.04 20.16,-7.31 26.63,-9.82l38.95 -15.59c4.12,-1.59 7.89,-2.86 11.31,-3.82l0.82 0.6c1,5.51 2.92,12.62 5.78,21.33l-5.67 2.2c-2.91,-6.77 -4.61,-10.35 -5.11,-10.71 -0.5,-0.34 -1.74,-0.38 -3.74,-0.08 -4.28,0.68 -10.46,2.57 -18.58,5.72 -3.97,1.54 -8.57,3.49 -13.77,5.83 5.14,14.93 9.35,26.77 12.64,35.52 5.18,-1.67 9.99,-3.37 14.42,-5.08 6.57,-2.55 10.43,-4.3 11.61,-5.22 0.68,-0.6 0.98,-1.5 0.89,-2.72 -0.03,-0.96 -0.88,-4.05 -2.47,-9.31l6.1 -2.36c2.88,8.1 4.79,13.37 5.73,15.79l6.58 15.85 -6.11 2.36c-2.77,-6.11 -4.57,-9.53 -5.47,-10.26 -0.52,-0.47 -1.31,-0.64 -2.39,-0.5 -2.58,0.42 -8.01,2.21 -16.3,5.42 -2.59,1.01 -5.59,2.34 -8.99,3.99 0.88,2.55 1.82,5.11 2.83,7.72 5.26,13.53 9.56,23.86 12.87,30.95l14.14 -5.31c8.02,-3.11 15.17,-6.38 21.47,-9.82 -0.53,-4.8 -1.33,-10.17 -2.41,-16.1l5.96 -2.31c2.21,8.83 4.72,17.16 7.54,24.97 -4.21,1.96 -8.29,3.71 -12.27,5.25 -2.59,1.01 -7.76,2.93 -15.47,5.75 -7.21,2.62 -13.83,5.1 -19.84,7.43 -7.9,3.06 -16.18,6.43 -24.81,10.11z"/>
    <g>
     <polygon fill="#E31E24" points="-0,261.33 -0,334.57 405.75,1.26 316.59,1.26 "/>
     <polygon fill="#FFED00" points="-0,188.08 -0,261.33 316.59,1.26 227.43,1.26 "/>
     <polygon fill="#E31E24" points="-0,112.99 -0,118.58 -0,188.08 227.43,1.26 136.01,1.26 "/>
    </g>
   </g>
   <g>
    <polygon fill="#1053CE" points="667.81,0.98 812.8,126.19 812.78,361.09 411.44,0 "/>
    <path fill="#1053CE" fill-rule="nonzero" d="M641.64 95.27l-10.63 -9.58 -14.57 16.29c-2.08,2.33 -4.2,3.59 -6.37,3.81 -4.34,0.43 -8.39,-3.13 -8.39,-7.51 0,-2.16 1.03,-4.39 3.08,-6.68l10.83 -12.12 0.09 0 0 -0.1 28.74 -32.14c4.61,-5.16 8.69,-5.05 13.73,-0.52l14.9 13.42c4.4,3.97 7.49,7.36 9.26,10.19 5.73,9 3.62,18.77 -3.23,26.43 -11.99,13.41 -25.39,9.37 -37.44,-1.49zm20.76 -28.9l-7.82 -7.05 -15.74 17.6 7.82 7.05c6.23,5.61 13.68,9.98 20.42,2.44 2.28,-2.55 3.38,-5.28 3.32,-8.21 -0.15,-3.21 -2.81,-7.15 -8,-11.83zm13.16 73.78l-8 8.95c-1.94,2.17 -3.9,3.33 -5.88,3.5 -3.99,0.34 -7.63,-2.84 -7.64,-6.9 0,-1.99 0.95,-4.05 2.87,-6.2l26.67 -29.83c4.3,-4.81 8.19,-5.66 11.65,-2.55 4.09,3.69 2.14,7.66 -0.87,11.3 3.24,-1.06 6.04,-1.55 8.4,-1.47 5.6,0.21 10.12,5.83 11.9,10.73 1.1,3.02 0.81,5.47 -0.85,7.34 -1.18,1.31 -2.57,1.99 -4.25,2.03 -3.64,0.1 -4.62,-1.86 -6.23,-4.63 -5.97,-10.19 -12.79,-6.96 -20.16,-0.17 -2.2,2.06 -4.73,4.69 -7.61,7.9zm67.04 49.01c-11.6,12.97 -27.73,14.33 -40.77,2.57 -5.88,-5.3 -9.7,-11.95 -10.02,-19.98 -0.32,-7.96 3.07,-15.08 8.29,-20.91 11.58,-12.96 27.6,-14.45 40.68,-2.68 13.05,11.77 13.42,28.03 1.82,41zm-10.73 -9.66c3.91,-4.37 5.98,-8.62 6.25,-12.78 0.25,-4.16 -1.23,-7.69 -4.46,-10.6 -7.74,-6.97 -16.85,-2.31 -22.85,4.4 -6,6.71 -9.6,16.28 -1.87,23.25 3.23,2.91 6.88,4 10.99,3.28 4.09,-0.71 8.09,-3.24 11.94,-7.55z"/>
   </g>
  </g>
 </g>
</svg>
